<?xml version="1.0" encoding="UTF-8"?>
<svg id="Layer_1" data-name="Layer 1" xmlns="http://www.w3.org/2000/svg" viewBox="0 0 958.61 904.09">
  <path d="M957.75,617.78l-.03-.27-.04-.27c-.7-4.34-1.42-8.68-2.13-13.01-2.42-14.69-4.92-29.89-6.96-44.81v-.06s-.02-.06-.02-.06c-2.32-15.95-4.79-32.12-7.18-47.76-3.33-21.75-6.76-44.24-9.83-66.37v-.05s-.01-.05-.01-.05c-.22-1.48-.42-2.98-.63-4.48-1.44-10.53-3.08-22.46-9.62-33.32l-.03-.04-.03-.04c-6.65-10.83-13.7-21.54-20.52-31.9-6.86-10.41-13.94-21.18-20.51-31.91-4.85-8-9.75-16.25-14.48-24.23-15.85-26.71-32.24-54.34-51.34-79.94-13.1-17.43-27-36.17-42.52-57.33l-.04-.05-.04-.05c-14.21-18.98-28.74-38.2-42.79-56.79l-7.67-10.15-.03-.04-.03-.04c-2.71-3.52-5.41-7.06-8.12-10.59-12.31-16.09-25.04-32.73-38.74-48.4l-.06-.07-.06-.06c-10.9-12.12-22.17-19.76-34.44-23.38l-.08-.02-.08-.02c-8.56-2.4-17.16-3.92-25.47-5.39-2.16-.38-4.32-.76-6.48-1.16l-.12-.02-.12-.02c-51.83-8.5-113.44-18.02-177.42-24.27-6.86-.89-13.71-1.35-20.36-1.35-3.58,0-7.16.13-10.65.39l-.8.06-.79.16c-8.94,1.84-16.79,5.34-24.38,8.72-2.44,1.09-4.75,2.11-7.06,3.08l-.04.02-.04.02c-8.69,3.67-17.29,7.67-25.6,11.53-5.63,2.61-11.45,5.32-17.17,7.86l-.11.05-.11.05c-4.12,1.93-8.24,3.85-12.37,5.78-22.07,10.29-44.88,20.93-66.9,32.61-2.25,1.2-4.52,2.37-6.78,3.54-11.44,5.93-23.28,12.06-33.73,21.15-10.23,8.8-16.95,19.71-22.86,31.31l-6.37,3.57c-3.53,1.98-6.99,4.05-10.33,6.05-5.78,3.46-11.24,6.73-16.9,9.46l-.4.19-.39.22c-5.76,3.3-11.71,6.24-18.01,9.36-6.14,3.04-12.48,6.17-18.69,9.7l-.1.05-.09.06c-13.46,7.96-20.17,20.82-26.08,32.17-1.56,2.99-3.03,5.81-4.56,8.45l-.11.19-.1.19c-15.13,28.19-32.1,55.28-46.7,78.06l-.04.06-.04.06c-1.9,3.04-3.81,6.06-5.72,9.09-6.16,9.75-12.53,19.83-18.33,30.22-5.8,9.92-8.25,22.18-7.08,35.45v.1s.02.1.02.1c2.71,25.85,7.79,51.48,12.71,76.28,1.06,5.33,2.12,10.67,3.15,16,4.22,24.64,9.79,48.5,16.55,70.92,11.71,39.67,27.58,71.84,48.52,98.35l.16.21.17.2c8.74,10.16,17.41,20.07,26.74,29.36l-.52,3.11c-2.48,14.73-7.12,28.94-12.04,43.98-2.03,6.22-4.13,12.65-6.06,19.1-3.94,12.84-5.05,25.24-3.32,36.86l.03.17.03.17c1.72,9.67,7.65,18.27,18.14,26.3l.11.09.12.08c11.28,8.23,23.52,14.15,34.14,19.06,17.64,8.84,36.48,13.75,54.26,18.01,24.76,5.87,50,8.63,74.41,11.29,15.79,1.72,32.11,3.5,47.87,6.1,24.97,4.04,51.23,11.32,78.08,21.64l.1.04.1.04c8.1,2.96,16.34,6.09,24.3,9.13,15.79,6.01,32.12,12.23,48.65,17.54,20,6.53,38.61,11.73,56.84,15.88h.06s.06.03.06.03c20.65,4.47,41.01,5.04,56.44,5.04,6.72,0,13.4-.13,18.48-.24h.23s.23-.02.23-.02c28.08-1.66,52.85-4.94,75.73-10.04l.16-.04.16-.04c50.88-12.75,98.68-33.33,142.08-61.17l.34-.22.33-.24c1.22-.9,2.45-1.79,3.7-2.69,8.82-6.38,18.81-13.6,25.43-24.58,6.13-10,4.89-21.91-3.7-35.41l-.04-.06-.04-.06c-.7-1.07-1.4-2.13-2.1-3.2-5.96-9.07-11.64-17.71-15.53-26.88,10.81-4.88,21.66-9.97,32.18-14.91,5.37-2.52,10.74-5.04,16.12-7.55l.15-.07.15-.07c3.14-1.56,6.42-3.12,9.59-4.63,12.41-5.9,25.24-12,36.7-21.26l.21-.17.2-.18c10.49-9.26,23.65-22,32.55-38.64,6.38-11.09,5.59-23.32,4.33-33.93Z" style="fill: #fff;"/>
  <g>
    <path d="M617.56,610.33c-4.73,2.38-9.45,4.79-14.3,6.88-4.88,2.11-10.13,3.29-14.79,5.92,1.16,3.46,2.63,6.83,3.49,10.4.6,1.97.79,4.26,2.6,5.59,4.39.39,8.57-1.37,12.68-2.68,3.97-1.55,8.69-3.42,10.28-7.75.34-6.12-.31-12.23.04-18.35Z" style="fill: none;"/>
    <path d="M558.22,627.09c.31,1.21.64,2.42,1,3.64,1.36,4.22,2.3,8.56,3.32,12.89.22.41.67,1.26.9,1.67,8.82,1.26,18.47.64,26.28-4.04,1.95-5.72-.22-11.98-2.31-17.39-9.86-.31-19.42,2.47-29.19,3.22Z" style="fill: none;"/>
    <path d="M535.6,628.31c1.25,4.57,2.56,9.12,4.14,13.6,1.7,5.04,8.02,4.9,12.41,4.89,2.82.05,7.34-.22,7.31-3.99-2.26-4.79-4.27-9.68-6.07-14.66-5.93-.15-11.87-.12-17.8.16Z" style="fill: none;"/>
    <path d="M621.77,625.78c4.52-1.5,9.39-3.62,11.53-8.2,2.45-6.04,1.4-12.79,2.01-19.15-5.6,3.84-11.17,7.73-16.91,11.34.97,5.37,1.88,10.76,3.37,16Z" style="fill: none;"/>
    <path d="M636.05,597.94c-.21,4.41,1.66,8.61,2.07,12.98,4.87-.02,8.26-4.51,9.72-8.72,1.61-4.01-.04-8.27-.64-12.31-3.92,2.38-7.81,4.89-11.16,8.05Z" style="fill: none;"/>
    <path d="M528.3,627.32c-4.54-.66-9.17-.37-13.75-.37,1.62,6.24,4.67,12.12,8.67,17.16,4.32.04,8.64.02,12.97-.25-.8-3.64-1.67-7.29-3.01-10.77-.87-2.43-1.97-5.34-4.88-5.77Z" style="fill: none;"/>
    <path d="M425.89,409.47c1.9-3.15-2.07-5.08-4.04-6.74-1.44,1.57-3.7,2.73-4.13,5,.51,1.44,1.23,2.76,2.14,4,2.24.14,5.39.62,6.03-2.26Z" style="fill: none;"/>
    <path d="M374.97,466.17c9.71,5.78,21.53,5.62,32.4,4.34,17.85-3.73,34.3-13.94,45.29-28.53,4.26-5.93,4.22-13.58,4.12-20.57-.24-3.01.4-6.45-1.77-8.9-5.27-6.79-12.09-12.17-18.61-17.68-8.34-6.68-19.49-9.06-29.92-7.05-16.12,2.56-33.75,6.2-45.19,18.86-7.71,8.56-9.42,20.63-7.93,31.69,2.9,11.77,10.75,22.29,21.6,27.84ZM404.21,407.91c1.9-5.35,6.04-10.12,11.57-11.8,4.64-.95,10-1.44,14.06,1.49,9.16,5.52,11.29,19.72,3.86,27.51-4.11,5-10.93,6.61-17.11,5.41-5.4-1.67-10.04-5.88-11.97-11.2-.65-3.75-1.04-7.64-.41-11.41Z" style="fill: none;"/>
    <path d="M673.28,322.49c-9.98-4.52-21.32-6.38-32.14-4.21-20.61,2.73-37.18,19.38-43.94,38.44-2.43,7.6-5.42,15.46-4.68,23.58,3.16,5.8,6.17,13.2,13.19,15.06,7.51,2.88,15.3,5.09,23.23,6.54,14.6,1.65,30.27-.04,42.86-8.12,12.13-8.6,20.97-23.23,19.79-38.42.45-13.14-6.32-26.87-18.31-32.87ZM663.04,353.79c-9.73,5.95-25-1.77-24.28-13.62-1.3-7.11,3.11-14.17,9.55-17.02,5.28-1.38,11.55-1.89,16.17,1.61,10.17,6.37,9.46,23.73-1.44,29.03Z" style="fill: none;"/>
    <path d="M653.49,330.1c.04,2.42.21,4.84.55,7.25,2.06-.09,4.11-.22,6.19-.38.05-2.39-.04-4.76-.3-7.11-2.15,0-4.29.09-6.44.24Z" style="fill: none;"/>
    <path d="M406.72,88.93c17.36-17.19,37.34-32.49,60.61-40.65,4.71-1.78,10.02-2.21,14.03-5.53-6.4-.5-12.49,1.75-18.57,3.37-11.87,3.26-23.26,8.44-33.21,15.73-8.46,5.94-15.69,13.4-22.73,20.92-5.12,6.04-10.72,12.03-13.39,19.64,5.15-3.74,8.79-9.04,13.27-13.48Z" style="fill: #919191;"/>
    <path d="M606.69,173.09c-2.48.85-4.98,1.67-7.55,2.21,9.47.72,18.93,1.78,28.43,2.12-2.06-1.73-4.18-3.64-6.95-4.07-11.06-2.43-22.61-2.57-33.72-.45,6.58-.45,13.22-.55,19.79.19Z" style="fill: #919191;"/>
    <path d="M729.35,220.5c-9.7-9.39-19.05-19.25-29.9-27.32,4.41,5.47,9.16,10.66,14.03,15.74,12.21,12.34,24.26,24.84,36.09,37.54,34.7,36.62,66.2,76.06,98.96,114.37,10.17,11.83,19.37,24.55,30.65,35.38-20.85-30.28-44.19-58.76-66.8-87.75-25.64-31.15-53.29-60.67-83.03-87.96Z" style="fill: #919191;"/>
    <path d="M226.82,685.6c6.66,7.13,15.48,11.72,24.22,15.79,21.87,9.76,44.36,18.05,67.1,25.54,13.3,4.38,26.16,10.2,39.74,13.77-3.81-2.71-8.04-4.72-12.29-6.58-26.23-11.53-52.81-22.28-79.23-33.39-13.77-6.54-29.15-11.99-38.73-24.56-7.24-10.11-11.96-21.69-17.21-32.87-5.24-11.46-10.51-23.06-13.09-35.47-2.16-16.26-1.16-32.69-1.31-49.05.11-14.98-.17-29.95.55-44.92.34-13.39-.51-26.87,1.44-40.16,3.53-59.89,15-118.91,23.5-178.22,1.1-9.83,4.22-19.58,2.83-29.55-4.11,15.4-6.23,31.24-9.62,46.8-9.44,47.98-18.23,96.19-22.43,144.94-.46,12.07-2,24.08-2.6,36.14-.71,31.64-.32,63.28-.49,94.93.21,7.34-.56,14.86,1.59,22,4.54,16.67,11.77,32.46,19.12,48.06,4.87,9.36,9.5,19.13,16.91,26.81Z" style="fill: #919191;"/>
    <path d="M299.55,447.62c2.72-.71,5.47-1.32,8.16-2.12-4.56-.42-9.12-.56-13.68-.16,2.53,2.15,5.63,3.36,8.95,3.52-1.16-.4-2.3-.81-3.43-1.24Z" style="fill: #919191;"/>
    <path d="M313.95,781.34c-29.23-6.43-58.38-13.67-86.47-24.16-18.83-7.13-36.03-17.92-52.07-29.98,6.95,6.34,13.64,13.09,21.65,18.15,17.95,11.74,37.53,21.02,58.01,27.42,25.37,8.76,51.89,13.27,78.02,19.1,25.8,5.37,51.16,12.84,75.69,22.44-8.84-5.9-18.83-9.77-28.67-13.69-21.63-7.76-43.66-14.59-66.17-19.27Z" style="fill: #919191;"/>
    <path d="M945.35,619.24c-3.15-19.37-6.49-38.7-9.14-58.13-5.54-38.09-11.74-76.08-17.02-114.21-1.66-11.29-2.56-23.16-8.59-33.17-13.23-21.55-27.83-42.25-41.04-63.83-21.1-34.8-40.81-70.55-65.19-103.23-14.32-19.05-28.49-38.2-42.58-57.41-16.74-22.35-33.6-44.62-50.43-66.9-15.16-19.69-29.99-39.66-46.37-58.38-7.83-8.7-17.3-16.4-28.69-19.76-10.11-2.83-20.53-4.39-30.84-6.29-58.71-9.62-117.6-18.41-176.82-24.19-9.49-1.25-19.12-1.62-28.66-.91-10.25,2.11-19.58,7.11-29.18,11.1-14.35,6.07-28.32,12.97-42.56,19.29-26.4,12.37-52.96,24.45-78.72,38.12-13.13,6.98-26.9,13.27-38.19,23.1-10.81,9.29-17.42,22.19-23.5,34.82-7.03,16.05-16.03,31.15-23.1,47.19-11.61,23.9-21.49,48.61-29.72,73.89-10.68,31.03-18.27,63.16-31.45,93.3-4.16,8.42-7.63,17.49-14.37,24.27,1.85-5.03,4.26-9.83,6.54-14.69,17.68-41.14,25.14-85.7,40.65-127.61,11.78-32.82,27.74-63.88,43.64-94.84-9.34,5.23-18.25,11.21-27.91,15.86-11.98,6.86-24.74,12.27-36.74,19.08-13.43,7.94-18.75,23.35-26.21,36.16-14.5,27.02-30.65,53.09-47.19,78.89-8.05,12.89-16.4,25.62-23.8,38.9-4.97,8.44-6.33,18.53-5.48,28.16,3.22,30.75,9.85,61.02,15.73,91.33,4.02,23.5,9.35,46.78,16.24,69.6,9.95,33.7,24.47,66.47,46.35,94.18,10.57,12.28,21.27,24.51,33.22,35.48,4.95,4.57,9.85,9.24,14.65,13.98,7.55,7.5,16.07,13.92,24.21,20.77,10.73,8.9,22.37,16.61,33.17,25.4-12.64-6.6-24.95-13.88-36.72-21.93-13.84-9.45-26.45-20.53-39.48-31.01-3.73,22.17-12.06,43.17-18.46,64.62-3.11,10.12-4.49,20.87-2.92,31.4,1.4,7.88,7.33,13.89,13.44,18.57,9.96,7.26,21.04,12.74,32.2,17.9,16.32,8.21,34.07,12.88,51.76,17.12,39.89,9.46,81.06,10.56,121.4,17.21,27.56,4.46,54.49,12.29,80.52,22.3,24.17,8.82,47.98,18.63,72.49,26.51,18.35,5.99,36.97,11.31,55.79,15.59,23.65,5.12,47.93,5.05,72,4.52,24.76-1.46,49.5-4.36,73.75-9.76,48.91-12.26,95.93-32.34,138.37-59.57,9.37-6.91,19.74-13.53,25.87-23.71,4.51-7.3.54-15.78-3.57-22.23-7.78-11.89-15.96-23.74-20.69-37.25-3.87,2.4-7.81,4.66-11.66,7.09-9.3,5.98-16.37,14.81-21.98,24.22-5.7,9.67-10.77,19.72-17.25,28.92-9.35,14.05-21.29,26.51-35.56,35.61-15.66,10.23-33.56,16.24-51.3,21.79-15.94,4.61-32.16,8.64-48.72,9.96,22.9-5.9,45.69-12.64,67.44-22.03,13.03-5.93,26.38-11.78,37.34-21.22,10.42-9.2,20.04-19.44,27.49-31.23,9.17-14.42,16.16-30.49,28.26-42.82,9.12-9.1,20.68-15.18,32.3-20.42,16.82-7.55,33.45-15.53,50.17-23.3,15-7.46,30.86-13.8,44.01-24.42,11.59-10.23,22.59-21.6,29.9-35.36,4.66-7.95,3.88-17.62,2.85-26.4ZM406.84,82.77c7.04-7.51,14.27-14.98,22.73-20.92,9.95-7.29,21.34-12.47,33.21-15.73,6.08-1.62,12.17-3.87,18.57-3.37-4.01,3.32-9.32,3.74-14.03,5.53-23.26,8.16-43.25,23.46-60.61,40.65-4.48,4.44-8.11,9.73-13.27,13.48,2.67-7.61,8.27-13.6,13.39-19.64ZM190.79,610.73c-2.15-7.14-1.37-14.66-1.59-22,.16-31.65-.22-63.29.49-94.93.6-12.07,2.13-24.08,2.6-36.14,4.19-48.75,12.99-96.96,22.43-144.94,3.39-15.56,5.52-31.4,9.62-46.8,1.39,9.97-1.73,19.72-2.83,29.55-8.5,59.31-19.97,118.33-23.5,178.22-1.95,13.29-1.1,26.77-1.44,40.16-.72,14.96-.44,29.94-.55,44.92.15,16.36-.85,32.79,1.31,49.05,2.58,12.41,7.85,24.01,13.09,35.47,5.25,11.18,9.97,22.76,17.21,32.87,9.57,12.57,24.96,18.02,38.73,24.56,26.42,11.11,52.99,21.85,79.23,33.39,4.26,1.86,8.49,3.87,12.29,6.58-13.58-3.57-26.43-9.39-39.74-13.77-22.74-7.49-45.23-15.78-67.1-25.54-8.75-4.07-17.56-8.66-24.22-15.79-7.41-7.68-12.04-17.45-16.91-26.81-7.35-15.6-14.58-31.39-19.12-48.06ZM333.09,791.86c-26.12-5.83-52.64-10.33-78.02-19.1-20.48-6.4-40.06-15.68-58.01-27.42-8.01-5.05-14.7-11.81-21.65-18.15,16.04,12.06,33.24,22.85,52.07,29.98,28.08,10.5,57.24,17.73,86.47,24.16,22.51,4.68,44.54,11.51,66.17,19.27,9.83,3.92,19.83,7.79,28.67,13.69-24.54-9.6-49.9-17.07-75.69-22.44ZM752.27,535.06c-1.09,18.82-2.67,37.69-6.7,56.15-4.93,22.12-12.38,43.57-18.63,65.34-3.05,10.76-6.18,21.57-10.52,31.88-1.55-7.76-1.01-15.7-1.14-23.56-.25-11.26.41-22.53,1.59-33.71,2-18.76,10.38-35.92,15.03-54.04,3.13-11.27,4.92-22.9,5.32-34.6.07-3.54-.76-7.03-1.51-10.46-2.97,10.85-4.19,22.08-6.74,33.01-4.31,20.24-12.42,39.48-16.47,59.77-4.64,22.23-1.4,45.03-3.57,67.48.07,15-1.65,30-5.33,44.56-4.84,16.36-12.46,32.57-25.45,44.04-15.96,14.1-36.76,20.68-57,25.83-18.55,4.21-37.59,7.79-56.65,5.5-21.07-3.61-39.55-15.64-55.38-29.49-10.67-9.76-20.13-20.69-29.85-31.35-15.03-17.76-26.75-37.97-41.31-56.06-9.75-13-22.69-23.05-33.67-34.91-12.44-13.49-19.39-30.71-28.63-46.32-4.79-8.14-9.2-16.71-16.14-23.29,4.49,9.39,9.6,18.47,14.13,27.84,6.71,13.42,12.13,27.69,21.65,39.49,6.73,9.04,16.01,15.58,23.96,23.43,7.24,6.9,14.47,13.93,20.24,22.15,8.89,12.47,16.16,26.03,25.57,38.15,6.94,10.11,14.98,19.37,22.5,29.04-14.12-11.43-28.58-22.43-42.92-33.59-17.09-12.72-34.2-25.54-49.82-40.05-20.09-18.63-35.61-41.75-47.28-66.43-9.41-18.43-16.74-37.93-27.71-55.54-2.83-4.97-5.77-9.92-9.66-14.14,2.27,5.84,5.59,11.86,4.18,18.35-2.07,6.49-8.47,11.91-15.55,11.27-10.93,1.19-20.36-5.92-27.61-13.25-9.42-8.92-17.55-19.05-25.72-29.09-4.48-5.52-9.58-10.52-13.9-16.16,1.12-3.49,2.87-6.78,4.53-10.05.31-.12.92-.39,1.24-.51,6.94,12.31,17.35,22.86,30.61,28.18-8.14-12.29-22.49-20.28-27.25-34.75,1.67-7.74,5.08-15.01,6.8-22.76.34-.14,1.01-.41,1.35-.56,1.73,3.62,3.52,7.21,5.04,10.93,3.38,7.45,1.57,16.4,6.24,23.39,5.57,9.01,16.1,13.33,26.23,14.63-6.19-7.89-14.2-14.76-17.07-24.77,14.19,10.1,26.77,22.39,41.52,31.76,7.04,4.48,13.54,9.71,19.91,15.09-9.55-20.19-27.64-34.77-37.01-55.08-6.99-13.45-8.91-28.68-9.51-43.63-2.31-13.02-6.1-25.73-7.88-38.86-3.23-14.99,3.59-29.29,5.55-43.91,3.17-18.08-3.59-35.77-5.35-53.6-.16-2,.4-3.94,1.27-5.7,21.03-44.04,40.4-88.95,64.32-131.55,9.71-17.92,20.99-34.91,32.47-51.72,19.63-.87,39.05,2.5,58.48,4.79-5.52-6.35-14.37-7.35-21.03-11.99,5.89-1,11.73.57,17.5,1.63,8.89,1.77,17.64,4.79,25.31,9.68,4.34,2.75,8.07,6.33,12.11,9.5,2.42-5.53,2.15-11.57,1.82-17.45,6.12,3.28,11.54,7.85,15.73,13.39,2.66,3.52,3.1,8.04,3.64,12.27,6.66-5.13,12.27-11.48,16.72-18.6,6.98-9.87,13.44-20.37,16.54-32.16.59.12,1.77.37,2.36.5.91,8.84.1,17.7.22,26.55,2.71-2.02,5.34-4.26,7.13-7.18,5.89-9.25,9.34-20.13,9.51-31.13,21.14,4.93,40.96,14.32,59.91,24.74,17.75,9.71,34.38,22.02,47.05,37.92,7.49,9.06,14.47,18.6,19.99,28.99,8.36,15.28,16.9,30.66,22,47.41,2.3,7.61,5.34,15.01,7.25,22.75-8.2-3.39-15.55-10.38-24.99-9.49-6.39.09-11.25,4.76-16.01,8.4-4.29,3.49-9.73,5.12-14.07,8.54-4.63,3.58-8.49,8.06-13.23,11.52-8.45,6.32-17.51,11.78-26.8,16.77-9.37,4.77-19.63,9.21-25.69,18.3-6.15,8.05-11.97,19.21-6.64,29.15,4.08-1.95,7.83-4.59,12.14-6.05,8.27-2.9,16.91-4.76,25.06-8.04-7.7,7.86-12.71,17.92-15.91,28.36-2.56,8.46-2.76,17.37-4.31,26.05-.24,2.96-.97,6.19.26,9.02,6.49,2.51,13.5,3.44,19.81,6.49,17.01,7.73,36.82,10.62,54.89,4.98,17.14-5.3,31.33-19.68,35.81-37.12,2.56-8.41,1.06-17.22-1.55-25.4-1.54-3.52,2.47-6.51,1.64-10.1-1.37-7.66-7.75-13.08-14.45-16.24-12.42-5.72-26.41-6.59-39.86-5.72,8.9-8.22,19.71-14.13,31.1-18.12,7.19-2.68,14.98-2.43,22.5-1.77,7,.97,12.88,5.53,16.95,11.12,2.57,2.9,1.15,7.04,1.36,10.53-1.09,11.03,3.46,21.54,8.59,31.04,4.72,9.88,9.52,19.81,12.56,30.39,3,10.4,6.13,20.76,8.75,31.26,3.56,16.75,5.65,33.78,7.55,50.78.62,26.63.05,53.29-.06,79.94ZM671.79,393.78c-12.59,8.09-28.26,9.77-42.86,8.12-7.93-1.45-15.71-3.66-23.23-6.54-7.03-1.86-10.03-9.26-13.19-15.06-.74-8.11,2.25-15.98,4.68-23.58,6.76-19.06,23.34-35.71,43.94-38.44,10.82-2.17,22.15-.31,32.14,4.21,11.99,6,18.76,19.73,18.31,32.87,1.17,15.19-7.66,29.82-19.79,38.42ZM595.34,392.51c-2.32-.46-4.63-.89-6.91-1.46.39-2.26.71-4.52,1.44-6.69,3.61.44,3.78,5.53,5.48,8.15ZM848.53,360.83c-32.76-38.32-64.26-77.75-98.96-114.37-11.83-12.71-23.89-25.2-36.09-37.54-4.87-5.08-9.62-10.27-14.03-15.74,10.86,8.07,20.21,17.93,29.9,27.32,29.74,27.3,57.4,56.81,83.03,87.96,22.6,28.99,45.94,57.47,66.8,87.75-11.28-10.83-20.48-23.55-30.65-35.38Z"/>
    <path d="M445.99,228.43c13.07-1.4,26.33-2.25,38.91-6.33,22-7.09,41.86-19.18,61.58-30.95,15.93-9.55,34.25-14.42,52.66-15.85,2.57-.54,5.07-1.36,7.55-2.21-6.58-.74-13.22-.64-19.79-.19-6.58.85-13.14,2.01-19.47,4.01-21.4,6.84-39.56,20.58-59.38,30.7-11.76,5.45-23.94,10.22-36.64,12.95-17.26,3.83-35.27,2.86-52.29,7.99-19.42,5.9-38.45,14.9-52.99,29.37,6.4-4.04,12.81-8.1,19.46-11.73,18.51-10.32,39.34-16.17,60.42-17.76Z"/>
    <path d="M615.35,202.34c-20.22,1.46-40.56,5.9-58.47,15.69-10.2,5.45-19.67,12.17-30.04,17.31-6.25,3.13-12.72,5.84-18.81,9.26,6.65-1.59,13.24-3.54,19.56-6.2,17.82-7.3,33.52-19.08,51.88-25.2,12.33-4.41,25.39-6.14,37.97-9.65,3.97-.9,8.05-1.12,12.07-1.72-4.72-.79-9.47-.15-14.15.51Z"/>
    <path d="M567.29,248.22c-15.34,9.95-29.55,21.59-42.53,34.46,7.2-4.71,14.55-9.17,21.33-14.49,13.19-10.38,27.73-19.12,43.48-25,15.06-6.03,31.44-6.94,47.38-8.72,7.11-1.46,14.43-.42,21.59-1.45-11.61-1.22-23.36-2.7-35.01-.96-19.52,1.46-39.6,5.28-56.24,16.16Z"/>
    <path d="M312.99,372.23c-6.28,8.57-12.24,18.3-12.31,29.28-.16,10.28,4.44,19.96,10.9,27.74,2.27-7.01,1.06-14.32,1.64-21.5,2.51-3.83,5.75-7.13,8.57-10.72,4.97-6.93,14.04-8.11,20.54-13.07,7.59-5.58,17.05-7.68,26.31-8.05,13.72-.52,27.57-.86,41.19,1.19,15.98,1.06,32.15.61,47.86-2.65,7.8-1.85,15.86-1.32,23.81-1.07,1.46-13.92-11.56-24.95-24.26-27.07-10.31.89-20.74,1.47-31.1.77-19.87-2.88-39.73-9.6-60.01-6.51-6.81.69-14.15-.34-20.28,3.42-9.78,6.08-18.31,13.97-26.66,21.83-.06-6.91,2.55-13.5,2.56-20.39.05-13.95-6-26.86-11.08-39.54-3.01-7.18-5.13-14.66-7.76-21.98-.5,20.28,13,37.63,13.98,57.67.56,7.63-2.13,14.95-2.27,22.53-.21,2.76.44,5.89-1.62,8.12Z"/>
    <path d="M557.63,351.29c-3.51-4.08-7.7-7.61-10.47-12.28-6.18-9.92-7.31-21.83-11.64-32.51,1.34,7.75,1,15.78,3.48,23.33,2.63,9.41,8.94,18.46,18.63,21.47Z"/>
    <path d="M495.85,373.71c9-5.28,14.23-15.54,14.35-25.83-.02-11.64-3.36-22.99-7.71-33.69,1.61,5.3,2.08,10.82,2.82,16.3.79,7.33,1.72,14.8.27,22.1-1.36,7.75-5.47,14.64-9.73,21.12Z"/>
    <path d="M718.68,342.6c-5.39-3.33-11.28,1.27-16.44,3.16,5.69,1.05,11.93,1.06,16.44-3.16Z"/>
    <path d="M562.81,389.96c3.53,16.34,15.01,29.12,25.36,41.64,3.93,5.15,7.65,10.51,12.56,14.83-4.73-8.5-9.32-17.07-14.8-25.11-7.89-12.37-16.99-25.64-15.89-41.04-.46-13.44,6.69-25.21,12.76-36.64-12.43,11.77-22.93,28.53-19.98,46.33Z"/>
    <path d="M664.48,324.77c-4.62-3.5-10.89-2.99-16.17-1.61-6.44,2.85-10.85,9.92-9.55,17.02-.72,11.85,14.55,19.56,24.28,13.62,10.9-5.29,11.61-22.66,1.44-29.03ZM654.04,337.35c-.34-2.41-.51-4.82-.55-7.25,2.14-.15,4.29-.24,6.44-.24.26,2.35.35,4.72.3,7.11-2.08.16-4.13.29-6.19.38Z"/>
    <path d="M707.11,375.39c-1.34,4.17-2.81,8.3-3.87,12.56,7.56-8.24,10.08-19.97,7.43-30.75-2.08,5.89-1.64,12.28-3.56,18.2Z"/>
    <path d="M718.34,362.31c2.48-.17,4.99-.29,7.5-.41.16-.56.47-1.7.64-2.26-2.67-.01-5.33.01-7.99.07-.04.65-.11,1.95-.15,2.6Z"/>
    <path d="M517.28,379.04c5.58-2.32,11.05-4.97,16.85-6.75,4.73-1.39,9.71-1.21,14.58-1.76-4.98-1.09-10.16-2.8-15.24-1.32-6.33,1.47-11.18,6-16.19,9.83Z"/>
    <path d="M724.96,374.86c-3.73-1.02-7.68-.35-11.37.42,5.39,2.36,11.38,2.56,17.15,3.39-1.86-1.39-3.73-2.77-5.78-3.82Z"/>
    <path d="M483.98,387.24c6.8,5.78,13.75,12.77,15.03,22.04,1.97,17.06-5.35,33.19-7.88,49.77,6.23-11.22,10.63-23.34,14.66-35.49,2.76-8.66,3.73-19.36-2.5-26.8-8.03-10.01-20.19-16.07-32.57-18.73,4.17,3.42,9.02,5.87,13.25,9.21Z"/>
    <path d="M374.93,473.96c8.94,3.53,18.83,5.14,28.39,3.58,18.93-2.55,36.68-12.67,48.74-27.47,3.98-5.22,7.31-10.91,11.68-15.84,3.73-4.77,8.74-8.57,11.51-14.05-1.39-4.49-6.28-5.94-9.86-8.19-8.19-4.36-15.08-10.72-21.23-17.59,11.08,4.82,21.73,12.94,34.51,11.44-3.79-1.68-7.69-3.11-11.63-4.41-10.66-3.38-18.73-11.76-29.1-15.78-10.21-4.28-21.55-4.19-32.37-3.03-15.71,2.42-31.64,6-45.49,14.12-12.02,7.08-20.86,20.93-18.25,35.26,1.71-1.2,3.39-2.42,5.04-3.72-2.81,19.47,10.78,38.04,28.07,45.67ZM471.78,419.93c-3.39,4.13-6.9,8.15-10.52,12.09-.01-6.13.45-12.32-.94-18.33,3.91,1.91,7.79,3.89,11.46,6.24ZM361.29,406.64c11.44-12.66,29.07-16.3,45.19-18.86,10.42-2.01,21.58.37,29.92,7.05,6.51,5.52,13.34,10.9,18.61,17.68,2.17,2.45,1.54,5.89,1.77,8.9.1,6.99.14,14.64-4.12,20.57-11,14.59-27.44,24.8-45.29,28.53-10.87,1.27-22.69,1.44-32.4-4.34-10.86-5.55-18.71-16.07-21.6-27.84-1.5-11.06.21-23.13,7.93-31.69Z"/>
    <path d="M721.68,392.02c-.17-.86-.54-2.57-.71-3.42-5.88-.52-12.46-1.14-17.3,2.96,5.98.66,12.01.19,18.01.46Z"/>
    <path d="M596.63,413.15c26,19.57,65.49,21.63,91.54,1.12-9.49,3.93-19.2,7.71-29.47,8.92-18.12,1.42-37.08-.15-53.44-8.66-7.7-3.46-13.83-9.41-19.67-15.35,3.17,5,6.05,10.48,11.03,13.97Z"/>
    <path d="M734.18,415.25c-3.94-4.34-7.86-8.97-13.22-11.62-7.81-4.16-17.46-3.68-25.44-.22,5.63,2.12,11.74.72,17.59,1.68,7.9,1.04,14.83,5.44,21.07,10.16Z"/>
    <path d="M585.51,459.39c2.71,12.71,3.94,25.67,6.99,38.32.51-11.26-2.22-22.28-2.47-33.49-1.29-13.03-6.13-25.51-12.92-36.63-4.53-7.35-9.05-14.83-15.01-21.13,2.95,8.56,8.26,16,12.42,23.99,4.95,9.09,8.82,18.8,11,28.94Z"/>
    <path d="M416.59,430.52c6.17,1.2,13-.42,17.11-5.41,7.44-7.79,5.3-21.99-3.86-27.51-4.06-2.93-9.42-2.44-14.06-1.49-5.53,1.68-9.67,6.46-11.57,11.8-.63,3.77-.25,7.66.41,11.41,1.93,5.31,6.57,9.52,11.97,11.2ZM421.84,402.73c1.97,1.66,5.95,3.59,4.04,6.74-.64,2.88-3.79,2.39-6.03,2.26-.91-1.24-1.63-2.57-2.14-4,.43-2.27,2.69-3.42,4.13-5Z"/>
    <path d="M489.3,419.09c-2.02,5.4-4.52,10.66-7.64,15.53-4.02,6.41-9.65,11.86-12.28,19.08,12.19-6.68,21.28-20.38,19.92-34.61Z"/>
    <path d="M302.98,448.86c2.97.94,6.24,1.04,9.26.24,8.02-2.88,17.35-2.12,24.1-8.05-9.11,4.24-19.53.06-28.63,4.46-2.7.8-5.44,1.41-8.16,2.12,1.14.42,2.27.84,3.43,1.24Z"/>
    <path d="M340.2,446.59c-4.73,2.28-8.92,5.64-13.89,7.43-4.36,1.06-8.9,1-13.24,2.15-4.09,1.37-7.16,4.54-10.42,7.21,5.19-1.61,10.52-2.82,15.9-3.67,8.61-1.12,16.76-5.89,21.65-13.12Z"/>
    <path d="M463.33,453.98c-9.55,14.15-22.98,26.03-39.24,31.74-15.15,5.45-32.21,5.58-47.4.17-13.2-4.19-23.46-14.12-32.08-24.56,5.77,16.26,21.2,27.25,37.34,31.75,31.68,8.89,68.99-8.24,81.37-39.1Z"/>
    <path d="M323.55,471.3c-8.41,6.38-13.69,16.25-15.83,26.48,5.45-5.88,8.62-13.55,14.66-18.95,5.22-5.62,12.74-8.14,18.25-13.39-6.15-.02-11.99,2.61-17.09,5.85Z"/>
    <path d="M337.15,488.51c-8.51,10.71-13.09,24.71-11.48,38.39,2.96-12.63,7.08-25.42,15.28-35.68,3.22-4.24,7.33-7.73,10.47-12.03-6.47-.75-10.7,4.85-14.27,9.32Z"/>
    <path d="M707.54,516.77c-6.99-3.48-15.05-3.56-22.17-6.65-8.61-3.61-15.59-9.97-23.38-14.94-7.09-4.8-14.65-9.06-22.9-11.49-4.94-1.29-10.12-.67-15.1-.07,6.81,2,13.98,3.15,20.28,6.61,10.93,5.17,19.26,14.18,29.29,20.71,6.32,4.31,13.73,6.43,21.15,7.88,5.69.8,8.6,6.7,8.89,11.92.69,8.69.14,17.45,1.71,26.07,1.83-11.17,5.14-22.43,2.85-33.82,2.17.1,4.34.21,6.54.31-2.16-2.4-4.22-5.05-7.16-6.51Z"/>
    <path d="M734.81,511.99c.44.62,1.31,1.88,1.75,2.52,4.79-8.72,8.84-17.98,10.02-27.96-5.4,10.45-12.39,19.87-19.72,29.03,2.73-1,5.42-2.13,7.95-3.59Z"/>
    <path d="M499,569.46c8.7,3.1,18.18,2.73,26.91,5.8,16.45,5,28.54,18.88,45.12,23.53,12.46,2.07,26.6-1.19,35.38-10.67,11.72-13.74,14.28-33.39,27.84-45.78,4.07-4.17,9.77-7.56,11.07-13.67,2.21-7.79-.29-15.96-3.79-22.94-4.28-7.95-10.95-15.23-19.88-17.75,4.51,5.44,10.28,9.98,13.22,16.6,3.52,7.55,5.6,16.76,2.56,24.77-5.28,6.88-12.42,12.21-16.97,19.72-.32-5.62-.35-11.29-1.76-16.77-1.73-8.55-6.47-16.12-7.96-24.72-1.4-6.75-.36-13.63.92-20.29-1.76,3.23-4.36,6.35-4.26,10.23-.14,4.76-.31,9.62.75,14.32,2.48,9.35,7.36,18.26,7.18,28.17.67,11.34-2.98,22.35-7.3,32.67-2.73,6.54-7.18,12.79-13.87,15.69-9.68,4.54-22.13,5.93-31.34-.41-12.71-8.19-25.91-15.79-40.14-21-7.03-2.66-15-1.24-21.87-4.41-7-4.47-10.35-13.14-10.25-21.22-.17-8.27,3.08-16.05,3.91-24.19-7.75,7.94-11.16,19.49-10.32,30.43.89,9.11,6,18.4,14.85,21.89Z"/>
    <path d="M500.47,513.37c3.91,2.61,8.3,4.58,11.69,7.91,2.9,2.85,5.63,5.88,8.66,8.61-4.16-7.84-10.37-16.86-20.36-16.52Z"/>
    <path d="M443.43,564.93c11.03-15.44,21.89-31.06,34.82-44.99-9.67,5.27-17.29,13.5-24.44,21.73-8.6,10.52-15.7,22.35-25.82,31.59-8.06,8.19-20.06,12.37-25.73,22.85-4.99,9.16-2.67,20.29,1.87,29.14.07-7.15-.96-14.4.46-21.47,1.42-5.83,6.05-10,10.82-13.24,10.18-7.51,20.56-15.23,28.02-25.61Z"/>
    <path d="M633.4,656.31c-11.2,7.18-24.31,10.26-36.97,13.77-16.8,4.69-34.38,8.52-51.86,6.03-23.43-4.47-41.85-20.57-61.04-33.52,7.26,7.68,15.25,14.59,23.74,20.89,12.56,10.03,27.66,17.04,43.63,19.27,14.14,1.45,28.09-1.95,41.78-5.08,13.44-3.52,27.21-6.81,39.39-13.78,6.23-3.56,11.51-8.56,16.04-14.08,5.74-7.29,9.16-16.03,12.72-24.5,4.84-13.18,9.51-26.52,11.88-40.39-7.99,16.82-12.29,35.27-21.94,51.31-4.28,7.81-9.86,15.15-17.37,20.08Z"/>
    <path d="M425.69,587.34c-6.41,6.69-6.8,16.71-4.58,25.22,4.51,12.93,13.05,23.85,20.47,35.2-3.72-11.68-9.95-22.29-15.16-33.3-4.16-8.51-1.83-18.2-.72-27.12Z"/>
    <path d="M572.8,716.8c-8.21,4.07-16.11,9.1-22.24,15.99,8.72-4.43,16.9-10,26.16-13.34,13.4-4.92,27.23-9.07,41.46-10.67,12.9-1.88,25.97-.84,38.85.54-6.03-2.47-12.29-4.41-18.8-4.9-22.37-1.71-45.44,2-65.44,12.39Z"/>
    <path d="M744.78,404.34c-2.62-10.51-5.75-20.87-8.75-31.26-3.03-10.58-7.84-20.51-12.56-30.39-5.13-9.5-9.67-20.01-8.59-31.04-.21-3.49,1.21-7.64-1.36-10.53-4.07-5.59-9.95-10.15-16.95-11.12-7.53-.66-15.31-.91-22.5,1.77-11.39,3.99-22.2,9.9-31.1,18.12,13.45-.87,27.44,0,39.86,5.72,6.7,3.16,13.08,8.57,14.45,16.24.84,3.58-3.17,6.58-1.64,10.1,2.61,8.17,4.11,16.99,1.55,25.4-4.48,17.44-18.67,31.81-35.81,37.12-18.07,5.64-37.88,2.75-54.89-4.98-6.3-3.05-13.32-3.98-19.81-6.49-1.24-2.83-.5-6.07-.26-9.02,1.55-8.67,1.75-17.59,4.31-26.05,3.21-10.43,8.21-20.49,15.91-28.36-8.15,3.28-16.79,5.14-25.06,8.04-4.32,1.46-8.06,4.11-12.14,6.05-5.33-9.95.49-21.1,6.64-29.15,6.05-9.09,16.31-13.53,25.69-18.3,9.29-4.99,18.35-10.46,26.8-16.77,4.74-3.46,8.6-7.94,13.23-11.52,4.33-3.42,9.77-5.04,14.07-8.54,4.77-3.64,9.62-8.31,16.01-8.4,9.44-.9,16.79,6.09,24.99,9.49-1.91-7.74-4.95-15.14-7.25-22.75-5.1-16.75-13.64-32.14-22-47.41-5.53-10.4-12.51-19.93-19.99-28.99-12.67-15.9-29.3-28.21-47.05-37.92-18.95-10.42-38.76-19.81-59.91-24.74-.17,11-3.62,21.88-9.51,31.13-1.78,2.92-4.42,5.15-7.13,7.18-.12-8.85.69-17.71-.22-26.55-.59-.12-1.77-.37-2.36-.5-3.1,11.79-9.56,22.29-16.54,32.16-4.46,7.11-10.06,13.47-16.72,18.6-.55-4.23-.99-8.75-3.64-12.27-4.18-5.54-9.61-10.11-15.73-13.39.32,5.88.6,11.92-1.82,17.45-4.03-3.17-7.76-6.75-12.11-9.5-7.68-4.89-16.42-7.91-25.31-9.68-5.77-1.06-11.61-2.63-17.5-1.63,6.66,4.64,15.51,5.64,21.03,11.99-19.43-2.3-38.85-5.67-58.48-4.79-11.48,16.81-22.76,33.8-32.47,51.72-23.93,42.6-43.3,87.5-64.32,131.55-.87,1.76-1.44,3.71-1.27,5.7,1.76,17.83,8.52,35.52,5.35,53.6-1.96,14.61-8.79,28.92-5.55,43.91,1.77,13.13,5.57,25.85,7.88,38.86.6,14.95,2.52,30.18,9.51,43.63,9.36,20.31,27.46,34.88,37.01,55.08-6.37-5.38-12.87-10.61-19.91-15.09-14.75-9.37-27.33-21.67-41.52-31.76,2.87,10.01,10.88,16.89,17.07,24.77-10.13-1.3-20.67-5.62-26.23-14.63-4.67-6.99-2.86-15.94-6.24-23.39-1.52-3.72-3.31-7.31-5.04-10.93-.34.15-1.01.42-1.35.56-1.72,7.75-5.13,15.03-6.8,22.76,4.76,14.46,19.11,22.45,27.25,34.75-13.27-5.32-23.68-15.88-30.61-28.18-.31.12-.92.39-1.24.51-1.66,3.27-3.41,6.55-4.53,10.05,4.32,5.64,9.42,10.65,13.9,16.16,8.17,10.05,16.3,20.17,25.72,29.09,7.25,7.34,16.67,14.44,27.61,13.25,7.08.64,13.48-4.78,15.55-11.27,1.41-6.49-1.91-12.51-4.18-18.35,3.89,4.22,6.83,9.17,9.66,14.14,10.97,17.61,18.3,37.1,27.71,55.54,11.67,24.69,27.18,47.8,47.28,66.43,15.63,14.51,32.74,27.33,49.82,40.05,14.34,11.16,28.81,22.15,42.92,33.59-7.53-9.67-15.56-18.93-22.5-29.04-9.41-12.12-16.69-25.68-25.57-38.15-5.78-8.22-13-15.25-20.24-22.15-7.95-7.85-17.24-14.39-23.96-23.43-9.52-11.79-14.94-26.07-21.65-39.49-4.53-9.37-9.63-18.46-14.13-27.84,6.94,6.58,11.34,15.15,16.14,23.29,9.24,15.6,16.19,32.82,28.63,46.32,10.98,11.86,23.93,21.9,33.67,34.91,14.56,18.1,26.28,38.3,41.31,56.06,9.72,10.66,19.18,21.59,29.85,31.35,15.83,13.85,34.31,25.88,55.38,29.49,19.06,2.28,38.1-1.3,56.65-5.5,20.24-5.15,41.04-11.73,57-25.83,12.99-11.47,20.61-27.68,25.45-44.04,3.68-14.55,5.4-29.55,5.33-44.56,2.17-22.45-1.07-45.25,3.57-67.48,4.06-20.29,12.17-39.53,16.47-59.77,2.55-10.93,3.77-22.17,6.74-33.01.75,3.43,1.59,6.91,1.51,10.46-.4,11.69-2.18,23.33-5.32,34.6-4.64,18.12-13.03,35.28-15.03,54.04-1.17,11.18-1.83,22.45-1.59,33.71.12,7.86-.41,15.8,1.14,23.56,4.34-10.31,7.48-21.12,10.52-31.88,6.25-21.77,13.7-43.22,18.63-65.34,4.03-18.46,5.62-37.33,6.7-56.15.11-26.65.69-53.3.06-79.94-1.9-17-3.99-34.03-7.55-50.78ZM720.97,388.6c.17.85.54,2.56.71,3.42-6-.27-12.03.2-18.01-.46,4.84-4.09,11.42-3.48,17.3-2.96ZM703.24,387.94c1.06-4.26,2.53-8.39,3.87-12.56,1.92-5.92,1.47-12.31,3.56-18.2,2.66,10.78.14,22.52-7.43,30.75ZM713.59,375.29c3.69-.77,7.64-1.45,11.37-.42,2.05,1.05,3.92,2.43,5.78,3.82-5.77-.84-11.76-1.04-17.15-3.39ZM726.48,359.64c-.16.56-.47,1.7-.64,2.26-2.51.12-5.02.24-7.5.41.04-.65.11-1.95.15-2.6,2.66-.06,5.32-.09,7.99-.07ZM718.68,342.6c-4.51,4.22-10.75,4.21-16.44,3.16,5.15-1.88,11.05-6.49,16.44-3.16ZM720.97,403.63c5.35,2.65,9.27,7.28,13.22,11.62-6.24-4.72-13.17-9.12-21.07-10.16-5.84-.96-11.96.44-17.59-1.68,7.98-3.46,17.62-3.93,25.44.22ZM605.27,414.54c16.36,8.51,35.32,10.08,53.44,8.66,10.27-1.21,19.98-4.99,29.47-8.92-26.06,20.51-65.55,18.45-91.54-1.12-4.98-3.48-7.86-8.96-11.03-13.97,5.84,5.94,11.97,11.89,19.67,15.35ZM341.82,432.01c-2.61-14.33,6.23-28.18,18.25-35.26,13.85-8.11,29.78-11.69,45.49-14.12,10.82-1.16,22.17-1.25,32.37,3.03,10.37,4.02,18.45,12.39,29.1,15.78,3.94,1.3,7.84,2.72,11.63,4.41-12.78,1.5-23.43-6.63-34.51-11.44,6.15,6.86,13.04,13.23,21.23,17.59,3.58,2.25,8.47,3.69,9.86,8.19-2.77,5.48-7.78,9.29-11.51,14.05-4.37,4.93-7.7,10.62-11.68,15.84-12.06,14.8-29.8,24.92-48.74,27.47-9.56,1.56-19.46-.05-28.39-3.58-17.29-7.63-30.88-26.2-28.07-45.67-1.65,1.3-3.33,2.52-5.04,3.72ZM505.31,330.49c-.74-5.48-1.21-11-2.82-16.3,4.36,10.7,7.69,22.04,7.71,33.69-.12,10.3-5.35,20.56-14.35,25.83,4.27-6.48,8.37-13.37,9.73-21.12,1.45-7.3.51-14.78-.27-22.1ZM522.1,412.37c2.82,18.16.3,37.18,7.1,54.63,3.89,9.41,8.64,18.47,13.64,27.34,3.41,6.19,6.13,13.25,4.68,20.44-3.02-6.08-5.33-12.47-7.68-18.82-4.59-9.36-11.27-17.62-14.93-27.46-3.33-8.6-4.61-17.88-4.53-27.06.1-9.71-.81-19.57,1.71-29.08ZM535.69,538.97c.34-5.02,1.47-9.96,3.23-14.68,1.07,2.96,1.85,6.09,1.45,9.27-.7,6.86-1.44,13.74-1.15,20.66,1.07,5.54,3.22,11.08,7.23,15.2,3.72,4.04,8.57,6.79,12.58,10.55-7.56-.11-13.54-5.79-18.03-11.29-6.34-8.59-6.08-19.58-5.3-29.7ZM548.71,370.53c-4.87.55-9.85.37-14.58,1.76-5.8,1.78-11.27,4.43-16.85,6.75,5-3.83,9.86-8.36,16.19-9.83,5.08-1.47,10.26.24,15.24,1.32ZM535.52,306.49c4.33,10.68,5.47,22.59,11.64,32.51,2.77,4.67,6.96,8.2,10.47,12.28-9.7-3.01-16-12.06-18.63-21.47-2.48-7.55-2.15-15.58-3.48-23.33ZM520.83,529.9c-3.03-2.73-5.77-5.77-8.66-8.61-3.39-3.33-7.79-5.3-11.69-7.91,9.98-.34,16.2,8.69,20.36,16.52ZM503.3,396.77c6.23,7.44,5.25,18.13,2.5,26.8-4.03,12.16-8.44,24.27-14.66,35.49,2.52-16.59,9.85-32.71,7.88-49.77-1.27-9.27-8.22-16.26-15.03-22.04-4.23-3.34-9.09-5.79-13.25-9.21,12.38,2.66,24.55,8.72,32.57,18.73ZM481.66,434.62c3.12-4.87,5.62-10.12,7.64-15.53,1.36,14.23-7.73,27.93-19.92,34.61,2.63-7.23,8.26-12.67,12.28-19.08ZM494.47,517.14c-.82,8.14-4.08,15.91-3.91,24.19-.1,8.07,3.24,16.75,10.25,21.22,6.86,3.17,14.84,1.75,21.87,4.41,14.23,5.22,27.43,12.82,40.14,21,9.21,6.34,21.65,4.95,31.34.41,6.69-2.9,11.13-9.15,13.87-15.69,4.32-10.32,7.98-21.33,7.3-32.67.19-9.91-4.69-18.82-7.18-28.17-1.06-4.69-.89-9.56-.75-14.32-.1-3.88,2.5-7,4.26-10.23-1.29,6.66-2.32,13.54-.92,20.29,1.5,8.6,6.23,16.17,7.96,24.72,1.41,5.48,1.44,11.16,1.76,16.77,4.56-7.51,11.69-12.84,16.97-19.72,3.05-8.01.96-17.22-2.56-24.77-2.93-6.61-8.71-11.16-13.22-16.6,8.94,2.52,15.6,9.8,19.88,17.75,3.51,6.98,6,15.15,3.79,22.94-1.3,6.1-7,9.5-11.07,13.67-13.57,12.39-16.12,32.04-27.84,45.78-8.79,9.49-22.93,12.74-35.38,10.67-16.57-4.64-28.67-18.52-45.12-23.53-8.72-3.07-18.21-2.71-26.91-5.8-8.85-3.49-13.97-12.78-14.85-21.89-.84-10.93,2.57-22.49,10.32-30.43ZM562.1,406.46c5.97,6.3,10.48,13.78,15.01,21.13,6.79,11.12,11.63,23.6,12.92,36.63.25,11.21,2.98,22.23,2.47,33.49-3.05-12.64-4.28-25.61-6.99-38.32-2.17-10.15-6.04-19.86-11-28.94-4.16-7.99-9.47-15.43-12.42-23.99ZM582.79,343.64c-6.07,11.43-13.22,23.2-12.76,36.64-1.1,15.4,8,28.67,15.89,41.04,5.48,8.04,10.07,16.61,14.8,25.11-4.9-4.32-8.62-9.67-12.56-14.83-10.35-12.52-21.83-25.3-25.36-41.64-2.95-17.8,7.55-34.56,19.98-46.33ZM658.54,233.02c-7.16,1.02-14.48-.01-21.59,1.45-15.94,1.78-32.31,2.7-47.38,8.72-15.75,5.88-30.29,14.61-43.48,25-6.78,5.32-14.13,9.78-21.33,14.49,12.98-12.87,27.2-24.51,42.53-34.46,16.64-10.88,36.72-14.7,56.24-16.16,11.64-1.73,23.4-.26,35.01.96ZM617.44,203.55c-12.58,3.51-25.64,5.24-37.97,9.65-18.36,6.12-34.06,17.9-51.88,25.2-6.32,2.66-12.91,4.62-19.56,6.2,6.09-3.42,12.56-6.13,18.81-9.26,10.37-5.14,19.84-11.86,30.04-17.31,17.91-9.78,38.25-14.23,58.47-15.69,4.68-.66,9.44-1.3,14.15-.51-4.02.6-8.1.82-12.07,1.72ZM419.11,228.55c17.02-5.13,35.03-4.16,52.29-7.99,12.71-2.73,24.89-7.5,36.64-12.95,19.82-10.12,37.98-23.86,59.38-30.7,6.33-2,12.89-3.16,19.47-4.01,11.11-2.12,22.66-1.98,33.72.45,2.77.42,4.89,2.33,6.95,4.07-9.5-.34-18.96-1.4-28.43-2.12-18.41,1.44-36.73,6.3-52.66,15.85-19.72,11.77-39.58,23.86-61.58,30.95-12.58,4.08-25.85,4.93-38.91,6.33-21.08,1.59-41.91,7.44-60.42,17.76-6.65,3.63-13.05,7.69-19.46,11.73,14.54-14.47,33.57-23.46,52.99-29.37ZM488.24,306.51c-6.22,0-12.34-1.16-18.53-1.49-12.18-.62-24.41.45-36.59-.42-22.12,2.01-43.78,7.6-64.49,15.54,24.86-13.05,52.81-21.55,81.11-20.52,9.96.14,19.79,2.02,29.69,3.07,3.62-1.52,6.51,1.44,8.81,3.82ZM387.98,282.03c26.88-8.79,55.48-9.6,82.77-16.69,4.88-2.51,10.31-3.86,15.81-3.79-3.52,3.44-8.06,5.38-12.59,7.1l-.74-.76c-33.91,10.31-69.99,11.23-103.39,23.41-4.63,1.57-9.12,4.06-14.18,3.69,10.56-4.82,21.18-9.61,32.31-12.97ZM316.88,341.58c-.97-20.04-14.48-37.39-13.98-57.67,2.63,7.31,4.76,14.8,7.76,21.98,5.08,12.68,11.13,25.59,11.08,39.54-.01,6.89-2.62,13.48-2.56,20.39,8.35-7.86,16.87-15.75,26.66-21.83,6.13-3.76,13.47-2.73,20.28-3.42,20.28-3.08,40.14,3.63,60.01,6.51,10.36.7,20.79.11,31.1-.77,12.71,2.12,25.72,13.15,24.26,27.07-7.95-.25-16.01-.77-23.81,1.07-15.71,3.26-31.89,3.71-47.86,2.65-13.62-2.05-27.47-1.71-41.19-1.19-9.26.37-18.72,2.47-26.31,8.05-6.5,4.95-15.58,6.14-20.54,13.07-2.82,3.59-6.07,6.89-8.57,10.72-.57,7.19.64,14.49-1.64,21.5-6.45-7.79-11.06-17.46-10.9-27.74.06-10.98,6.03-20.71,12.31-29.28,2.06-2.23,1.41-5.37,1.62-8.12.14-7.58,2.83-14.9,2.27-22.53ZM307.71,445.5c9.1-4.39,19.52-.21,28.63-4.46-6.75,5.93-16.08,5.17-24.1,8.05-3.02.8-6.29.7-9.26-.24-3.32-.16-6.42-1.37-8.95-3.52,4.56-.4,9.12-.26,13.68.16ZM313.06,456.16c4.34-1.15,8.89-1.09,13.24-2.15,4.97-1.78,9.16-5.14,13.89-7.43-4.89,7.23-13.04,11.99-21.65,13.12-5.38.85-10.71,2.06-15.9,3.67,3.26-2.67,6.33-5.84,10.42-7.21ZM322.39,478.84c-6.04,5.39-9.21,13.07-14.66,18.95,2.13-10.23,7.41-20.11,15.83-26.48,5.09-3.24,10.93-5.88,17.09-5.85-5.5,5.25-13.03,7.78-18.25,13.39ZM340.94,491.22c-8.2,10.26-12.32,23.05-15.28,35.68-1.61-13.68,2.97-27.68,11.48-38.39,3.57-4.47,7.8-10.07,14.27-9.32-3.15,4.31-7.25,7.79-10.47,12.03ZM344.61,461.33c8.61,10.45,18.87,20.37,32.08,24.56,15.19,5.4,32.25,5.28,47.4-.17,16.26-5.7,29.69-17.59,39.24-31.74-12.38,30.86-49.7,47.99-81.37,39.1-16.14-4.51-31.58-15.49-37.34-31.75ZM404.6,603.78c-1.42,7.06-.39,14.32-.46,21.47-4.54-8.85-6.86-19.98-1.87-29.14,5.68-10.48,17.67-14.66,25.73-22.85,10.12-9.24,17.22-21.07,25.82-31.59,7.15-8.22,14.76-16.46,24.44-21.73-12.93,13.93-23.79,29.55-34.82,44.99-7.46,10.38-17.83,18.1-28.02,25.61-4.77,3.24-9.4,7.41-10.82,13.24ZM421.11,612.57c-2.22-8.51-1.83-18.53,4.58-25.22-1.11,8.92-3.43,18.61.72,27.12,5.22,11.01,11.44,21.62,15.16,33.3-7.41-11.34-15.96-22.27-20.47-35.2ZM618.18,708.78c-14.23,1.6-28.06,5.75-41.46,10.67-9.26,3.34-17.44,8.91-26.16,13.34,6.13-6.89,14.03-11.92,22.24-15.99,19.99-10.4,43.07-14.1,65.44-12.39,6.5.5,12.77,2.43,18.8,4.9-12.88-1.37-25.95-2.42-38.85-.54ZM660.83,625.31c-3.56,8.47-6.98,17.21-12.72,24.5-4.53,5.52-9.81,10.52-16.04,14.08-12.18,6.96-25.95,10.26-39.39,13.78-13.69,3.13-27.64,6.53-41.78,5.08-15.98-2.23-31.08-9.24-43.63-19.27-8.49-6.3-16.47-13.22-23.74-20.89,19.2,12.95,37.62,29.05,61.04,33.52,17.47,2.5,35.06-1.34,51.86-6.03,12.66-3.51,25.77-6.59,36.97-13.77,7.51-4.93,13.09-12.27,17.37-20.08,9.65-16.04,13.95-34.48,21.94-51.31-2.37,13.87-7.04,27.21-11.88,40.39ZM692.05,537.03c-6.33,8.6-10.15,18.68-15.05,28.09-4.98,9.52-9.4,19.37-15.39,28.33-6.86,10.8-14.76,20.88-22.8,30.81-6.32,7.2-13.23,14.27-22.07,18.28-11.29,5.14-23.46,8.01-35.53,10.63-12.42,2.95-25.26,2.93-37.92,2.17-26.16-3.18-50.03-15.59-72.09-29.37-9.68-6.45-20.19-11.72-31.56-14.4-2.51,1.54-4.14,4.09-6.08,6.25.3-3.81-.31-8.39,3.06-11.06,4.42-4.89,11.38-5.64,17.56-4.69-4.44,2.5-9.32,4.36-13,8.01,3.94.49,7.88,1.11,11.76,2.03,18.22,4.47,36.76,7.7,55.43,9.55,14.17.32,28.37.72,42.53-.06,9.9-1.25,19.87-2.02,29.75-3.44,13.4-1.8,25.29-8.71,36.89-15.2,16.44-9.1,31.76-20.29,44.89-33.75,9.59-10.41,18.41-21.48,27.17-32.56-2.91-.06-5.82-.01-8.7-.12,3.41-3.67,8.31-5.53,13.3-4.71,3.08-.17,4.74,2.72,6.55,4.71-2.91.15-5.84,0-8.71.49ZM708.16,522.97c2.3,11.39-1.01,22.65-2.85,33.82-1.57-8.62-1.02-17.39-1.71-26.07-.29-5.22-3.2-11.12-8.89-11.92-7.43-1.45-14.84-3.57-21.15-7.88-10.03-6.53-18.36-15.54-29.29-20.71-6.3-3.47-13.47-4.62-20.28-6.61,4.98-.6,10.16-1.21,15.1.07,8.25,2.43,15.81,6.69,22.9,11.49,7.79,4.97,14.76,11.33,23.38,14.94,7.11,3.1,15.18,3.17,22.17,6.65,2.95,1.46,5,4.12,7.16,6.51-2.2-.1-4.37-.21-6.54-.31ZM736.55,514.51c-.44-.64-1.31-1.9-1.75-2.52-2.53,1.46-5.22,2.6-7.95,3.59,7.33-9.16,14.32-18.58,19.72-29.03-1.19,9.97-5.23,19.23-10.02,27.96Z" style="fill: #c1c1c1;"/>
    <path d="M369.85,291.3c33.4-12.18,69.48-13.1,103.39-23.41l.74.76c4.53-1.72,9.07-3.66,12.59-7.1-5.5-.06-10.93,1.29-15.81,3.79-27.3,7.09-55.89,7.9-82.77,16.69-11.13,3.36-21.75,8.15-32.31,12.97,5.05.36,9.55-2.12,14.18-3.69Z"/>
    <path d="M479.43,302.69c-9.9-1.05-19.73-2.93-29.69-3.07-28.31-1.04-56.25,7.46-81.11,20.52,20.71-7.94,42.37-13.53,64.49-15.54,12.18.87,24.41-.2,36.59.42,6.19.32,12.32,1.49,18.53,1.49-2.3-2.38-5.19-5.34-8.81-3.82Z"/>
    <path d="M694.21,531.84c-4.99-.82-9.9,1.04-13.3,4.71,2.88.11,5.79.06,8.7.12-8.76,11.08-17.59,22.15-27.17,32.56-13.13,13.45-28.46,24.65-44.89,33.75-11.61,6.49-23.49,13.4-36.89,15.2-9.88,1.42-19.86,2.2-29.75,3.44-14.17.79-28.37.39-42.53.06-18.67-1.85-37.2-5.08-55.43-9.55-3.88-.92-7.81-1.55-11.76-2.03,3.68-3.66,8.56-5.52,13-8.01-6.18-.95-13.14-.2-17.56,4.69-3.37,2.67-2.76,7.25-3.06,11.06,1.93-2.16,3.57-4.72,6.08-6.25,11.37,2.68,21.88,7.95,31.56,14.4,22.05,13.78,45.93,26.18,72.09,29.37,12.66.76,25.5.77,37.92-2.17,12.07-2.62,24.24-5.49,35.53-10.63,8.84-4.02,15.75-11.08,22.07-18.28,8.04-9.93,15.94-20.02,22.8-30.81,5.99-8.96,10.41-18.81,15.39-28.33,4.9-9.41,8.72-19.49,15.05-28.09,2.87-.49,5.8-.34,8.71-.49-1.81-1.98-3.47-4.88-6.55-4.71ZM523.22,644.11c-4.01-5.04-7.05-10.92-8.67-17.16,4.58,0,9.21-.29,13.75.37,2.91.42,4.01,3.33,4.88,5.77,1.34,3.48,2.21,7.13,3.01,10.77-4.33.27-8.65.29-12.97.25ZM552.15,646.8c-4.38.01-10.71.15-12.41-4.89-1.59-4.48-2.9-9.04-4.14-13.6,5.93-.29,11.87-.31,17.8-.16,1.8,4.98,3.81,9.87,6.07,14.66.02,3.77-4.49,4.04-7.31,3.99ZM589.72,641.26c-7.81,4.68-17.46,5.3-26.28,4.04-.22-.41-.67-1.26-.9-1.67-1.02-4.33-1.96-8.67-3.32-12.89-.36-1.22-.69-2.43-1-3.64,9.77-.75,19.33-3.53,29.19-3.22,2.08,5.4,4.26,11.67,2.31,17.39ZM617.53,628.68c-1.6,4.33-6.32,6.2-10.28,7.75-4.11,1.31-8.29,3.07-12.68,2.68-1.81-1.34-2-3.62-2.6-5.59-.86-3.57-2.33-6.94-3.49-10.4,4.66-2.62,9.91-3.81,14.79-5.92,4.86-2.08,9.57-4.49,14.3-6.88-.35,6.12.3,12.23-.04,18.35ZM633.3,617.58c-2.15,4.58-7.01,6.7-11.53,8.2-1.49-5.24-2.4-10.63-3.37-16,5.74-3.62,11.31-7.5,16.91-11.34-.61,6.35.44,13.1-2.01,19.15ZM647.84,602.2c-1.46,4.22-4.85,8.7-9.72,8.72-.41-4.37-2.28-8.57-2.07-12.98,3.34-3.16,7.24-5.67,11.16-8.05.6,4.03,2.25,8.3.64,12.31Z"/>
    <path d="M559.03,579.97c-4.01-3.76-8.86-6.5-12.58-10.55-4.01-4.12-6.15-9.66-7.23-15.2-.29-6.91.45-13.79,1.15-20.66.4-3.18-.37-6.32-1.45-9.27-1.76,4.72-2.9,9.66-3.23,14.68-.77,10.12-1.04,21.12,5.3,29.7,4.49,5.5,10.47,11.18,18.03,11.29Z"/>
    <path d="M524.92,468.5c3.66,9.83,10.33,18.1,14.93,27.46,2.35,6.35,4.66,12.74,7.68,18.82,1.45-7.19-1.27-14.25-4.68-20.44-5-8.87-9.75-17.93-13.64-27.34-6.8-17.45-4.28-36.47-7.1-54.63-2.52,9.51-1.61,19.37-1.71,29.08-.07,9.17,1.2,18.46,4.53,27.06Z"/>
    <path d="M589.86,384.36c-.72,2.17-1.05,4.43-1.44,6.69,2.28.57,4.59,1,6.91,1.46-1.7-2.62-1.87-7.71-5.48-8.15Z" style="fill: #c1c1c1;"/>
    <path d="M461.26,432.02c3.62-3.94,7.13-7.96,10.52-12.09-3.67-2.35-7.55-4.33-11.46-6.24,1.39,6.02.92,12.21.94,18.33Z" style="fill: #c1c1c1;"/>
  </g>
</svg>